<?xml version="1.0" encoding="UTF-8" standalone="no"?>
<!-- Generator: Adobe Illustrator 19.0.0, SVG Export Plug-In . SVG Version: 6.00 Build 0)  -->

<svg
   version="1.1"
   id="Layer_1"
   x="0px"
   y="0px"
   viewBox="0 0 55 55"
   xml:space="preserve"
   sodipodi:docname="logo.svg"
   width="55"
   height="55"
   inkscape:version="1.1 (c68e22c387, 2021-05-23)"
   xmlns:inkscape="http://www.inkscape.org/namespaces/inkscape"
   xmlns:sodipodi="http://sodipodi.sourceforge.net/DTD/sodipodi-0.dtd"
   xmlns="http://www.w3.org/2000/svg"
   xmlns:svg="http://www.w3.org/2000/svg"><defs
   id="defs63" /><sodipodi:namedview
   id="namedview61"
   pagecolor="#ffffff"
   bordercolor="#666666"
   borderopacity="1.0"
   inkscape:pageshadow="2"
   inkscape:pageopacity="0.0"
   inkscape:pagecheckerboard="0"
   showgrid="false"
   inkscape:zoom="0.80434783"
   inkscape:cx="29.837838"
   inkscape:cy="157.27027"
   inkscape:window-width="1920"
   inkscape:window-height="1009"
   inkscape:window-x="-8"
   inkscape:window-y="-8"
   inkscape:window-maximized="1"
   inkscape:current-layer="Layer_1" />
<g
   id="g28"
   transform="matrix(0.10869565,0,0,0.10869565,2.5000005,2.5000005)"
   style="stroke-width:9.2">
	<path
   style="fill:#c2fbff;stroke-width:84.64"
   d="M 172.758,452.82 C 73.426,427.377 0,337.264 0,230 0,102.975 102.975,0 230,0 327.288,0 410.468,60.404 444.082,145.754 Z"
   id="path2" />
	<path
   style="fill:#71e2f0;stroke-width:84.64"
   d="M 444.08,145.754 380.482,82.156 328,96.5 312.41,139.52 83.1,254.27 l 40.314,40.314 -40.313,9.685 37.5,37.5 -29.446,29.445 81.603,81.603 c 18.301,4.688 37.48,7.183 57.242,7.183 127.026,0 230,-102.975 230,-230 0,-29.738 -5.645,-58.157 -15.92,-84.246 z"
   id="path4" />
	<rect
   x="313.634"
   y="139.52"
   style="fill:#ffffff;stroke-width:84.64"
   width="66.848"
   height="20"
   id="rect6" />
	<rect
   x="303.634"
   y="186.895"
   style="fill:#ffffff;stroke-width:84.64"
   width="106.848"
   height="20"
   id="rect8" />
	<rect
   x="298.634"
   y="234.27"
   style="fill:#ffffff;stroke-width:84.64"
   width="81.848"
   height="20"
   id="rect10" />
	<rect
   x="268.634"
   y="341.76901"
   style="fill:#ffffff;stroke-width:84.64"
   width="111.848"
   height="20"
   id="rect12" />
	<polygon
   style="fill:#5488a8;stroke-width:84.64"
   points="64.35,139.52 183.38,139.52 203.38,196.895 183.38,254.27 83.1,254.27 "
   id="polygon14" />
	<polygon
   style="fill:#366796;stroke-width:84.64"
   points="293.6,254.27 183.38,254.27 183.38,139.52 312.41,139.52 "
   id="polygon16" />
	<path
   style="fill:#121149;stroke-width:84.64"
   d="M 257.182,304.269 H 83.101 v -20 h 174.081 c 11.657,0 23.099,-9.719 24.984,-21.222 L 305.59,120.144 c 3.434,-20.947 23.496,-37.988 44.721,-37.988 h 30.171 v 20 h -30.171 c -11.657,0 -23.099,9.719 -24.985,21.223 l -23.424,142.903 c -3.433,20.946 -23.495,37.987 -44.72,37.987 z"
   id="path18" />
	<path
   style="fill:#121149;stroke-width:84.64"
   d="m 103.101,351.769 7.5,27.5 c 15.188,0 27.5,-12.312 27.5,-27.5 0,-15.188 -12.312,-27.5 -27.5,-27.5 z"
   id="path20" />
	<path
   style="fill:#273b7a;stroke-width:84.64"
   d="m 83.101,351.769 c 0,15.188 12.312,27.5 27.5,27.5 v -55 c -15.188,0 -27.5,12.312 -27.5,27.5 z"
   id="path22" />
	<path
   style="fill:#121149;stroke-width:84.64"
   d="m 249.682,351.769 7.5,27.5 c 15.188,0 27.5,-12.312 27.5,-27.5 0,-15.188 -12.312,-27.5 -27.5,-27.5 z"
   id="path24" />
	<path
   style="fill:#273b7a;stroke-width:84.64"
   d="m 229.682,351.769 c 0,15.188 12.312,27.5 27.5,27.5 v -55 c -15.188,0 -27.5,12.312 -27.5,27.5 z"
   id="path26" />
</g>
<g
   id="g30">
</g>
<g
   id="g32">
</g>
<g
   id="g34">
</g>
<g
   id="g36">
</g>
<g
   id="g38">
</g>
<g
   id="g40">
</g>
<g
   id="g42">
</g>
<g
   id="g44">
</g>
<g
   id="g46">
</g>
<g
   id="g48">
</g>
<g
   id="g50">
</g>
<g
   id="g52">
</g>
<g
   id="g54">
</g>
<g
   id="g56">
</g>
<g
   id="g58">
</g>
</svg>
